<svg width="24" height="24" viewBox="0 0 24 24" fill="none" xmlns="http://www.w3.org/2000/svg">
<g clip-path="url(#clip0_288_632)">
<path d="M0.5 0.5H23.5V23.5H0.5V0.5Z" stroke="#A3AED0"/>
<path d="M9.99998 13.5H9.49998V14V19C9.49998 19.2738 9.27383 19.5 8.99998 19.5H5.99998C5.72612 19.5 5.49998 19.2738 5.49998 19V12V11.5H4.99998H3.30629L11.6634 3.97259C11.6636 3.97241 11.6638 3.97224 11.664 3.97206C11.854 3.80261 12.146 3.80261 12.336 3.97206C12.3362 3.97224 12.3364 3.97241 12.3366 3.97259L20.6937 11.5H19H18.5V12V19C18.5 19.2738 18.2738 19.5 18 19.5H15C14.7261 19.5 14.5 19.2738 14.5 19V14V13.5H14H9.99998Z" fill="#A3AED0" stroke="#A3AED0"/>
</g>
<defs>
<clipPath id="clip0_288_632">
<rect width="24" height="24" fill="white"/>
</clipPath>
</defs>
</svg>
