<svg width="24" height="24" viewBox="0 0 24 24" fill="none" xmlns="http://www.w3.org/2000/svg">
<g clip-path="url(#clip0_288_640)">
<path d="M0.5 0.5H23.5V23.5H0.5V0.5Z" stroke="#A3AED0"/>
<path d="M6.4 9.7H6.6C7.09386 9.7 7.5 10.1061 7.5 10.6L7.5 17.6C7.5 18.0939 7.09386 18.5 6.6 18.5H6.4C5.90614 18.5 5.5 18.0939 5.5 17.6L5.5 10.6C5.5 10.1061 5.90614 9.7 6.4 9.7ZM12 5.5C12.4939 5.5 12.9 5.90614 12.9 6.4L12.9 17.6C12.9 18.0939 12.4939 18.5 12 18.5C11.5061 18.5 11.1 18.0939 11.1 17.6L11.1 6.4C11.1 5.90614 11.5061 5.5 12 5.5ZM17.6 13.5C18.0939 13.5 18.5 13.9061 18.5 14.4V17.6C18.5 18.0939 18.0939 18.5 17.6 18.5C17.1061 18.5 16.7 18.0939 16.7 17.6V14.4C16.7 13.9061 17.1061 13.5 17.6 13.5Z" fill="#A3AED0" stroke="#A3AED0"/>
</g>
<defs>
<clipPath id="clip0_288_640">
<rect width="24" height="24" fill="white"/>
</clipPath>
</defs>
</svg>
