<?xml version="1.0" encoding="UTF-8"?>
<svg version="1.1" xmlns="http://www.w3.org/2000/svg" width="50" height="55">
<path d="M0 0 C16.5 0 33 0 50 0 C50 18.15 50 36.3 50 55 C33.5 55 17 55 0 55 C0 36.85 0 18.7 0 0 Z " fill="#ADC73E" transform="translate(0,0)"/>
<path d="M0 0 C2.31 0 4.62 0 7 0 C6.67 0.66 6.34 1.32 6 2 C5.24817347 5.3290959 5.24817347 5.3290959 6 9 C8.3898138 11.45094857 11.09757238 13.20748734 14 15 C14.99 15.66 15.98 16.32 17 17 C16.44570313 17.25394531 15.89140625 17.50789063 15.3203125 17.76953125 C14.59585937 18.11371094 13.87140625 18.45789063 13.125 18.8125 C12.40570313 19.14894531 11.68640625 19.48539063 10.9453125 19.83203125 C8.69457194 20.99467097 8.69457194 20.99467097 7 24 C6.60650957 27.43078589 6.60650957 27.43078589 8 31 C10.14345008 32.82366116 12.3589152 34.21489378 14.78125 35.64453125 C17 37 17 37 19.3125 39.375 C21.08976213 41.46242779 21.08976213 41.46242779 25 41 C25 41.66 25 42.32 25 43 C25.53367187 43.09667969 26.06734375 43.19335938 26.6171875 43.29296875 C29.73769151 44.21888879 32.3032009 45.69360543 35.125 47.3125 C36.17945313 47.90675781 37.23390625 48.50101563 38.3203125 49.11328125 C41 51 41 51 43 55 C28.81 55 14.62 55 0 55 C0 36.85 0 18.7 0 0 Z " fill="#FAFBFA" transform="translate(0,0)"/>
<path d="M0 0 C13.86 0 27.72 0 42 0 C42 18.15 42 36.3 42 55 C40.02 55 38.04 55 36 55 C36.268125 53.783125 36.53625 52.56625 36.8125 51.3125 C37.25505117 47.73415771 37.19907008 47.27145921 34.9375 44.1875 C32.05915029 42.04404809 29.27823279 40.44852147 26 39 C26.8353125 38.38125 26.8353125 38.38125 27.6875 37.75 C28.450625 37.1725 29.21375 36.595 30 36 C30.9075 35.4225 31.815 34.845 32.75 34.25 C35.28498539 32.10648826 35.28498539 32.10648826 35.8125 28.625 C34.76877934 23.96840011 33.02242348 22.90399082 29.1640625 20.34765625 C28.44992188 19.90292969 27.73578125 19.45820313 27 19 C25.9275 18.2575 24.855 17.515 23.75 16.75 C21.21421278 15.06947782 21.21421278 15.06947782 19.26953125 14.13671875 C16.100214 12.54933266 13.02145128 10.80783069 9.9375 9.0625 C9.31294922 8.71509766 8.68839844 8.36769531 8.04492188 8.00976562 C2.01761623 4.59407801 2.01761623 4.59407801 0 2 C0 1.34 0 0.68 0 0 Z " fill="#FCFDFB" transform="translate(8,0)"/>
<path d="M0 0 C-0.825 0.53625 -1.65 1.0725 -2.5 1.625 C-5.24402594 3.76714624 -5.24402594 3.76714624 -5.53125 6.84375 C-4.91099051 10.52882108 -3.72566239 11.58992865 -0.734375 13.7265625 C-0.16203125 14.10554688 0.4103125 14.48453125 1 14.875 C1.57234375 15.2771875 2.1446875 15.679375 2.734375 16.09375 C4.14388371 17.0804061 5.57040372 18.04268106 7 19 C4.50365329 21.63382667 2.53079849 22.96659556 -1 24 C-4.4534983 23.48051191 -7.08509202 21.96137052 -10.0625 20.1875 C-10.91972656 19.68605469 -11.77695313 19.18460938 -12.66015625 18.66796875 C-15.06238945 16.95552538 -16.49562786 15.52852126 -18 13 C-18.125 9.5625 -18.125 9.5625 -17 6 C-12.77484566 1.57805765 -6.09425211 -2.34394312 0 0 Z " fill="#3B93A7" transform="translate(24,16)"/>
<path d="M0 0 C0.928125 0.86625 1.85625 1.7325 2.8125 2.625 C10.10237706 8.82507726 17.37433441 12.68440441 27 13 C27 13.33 27 13.66 27 14 C25.23225581 14.53122363 23.46065917 15.04964073 21.6875 15.5625 C20.70136719 15.85253906 19.71523438 16.14257812 18.69921875 16.44140625 C16 17 16 17 13 16 C12.113125 16.103125 11.22625 16.20625 10.3125 16.3125 C5.20873304 15.83101255 1.57220273 12.57220273 -2 9 C-2.1875 5.5625 -2.1875 5.5625 -2 2 C-1.34 1.34 -0.68 0.68 0 0 Z " fill="#AEC841" transform="translate(7,0)"/>
<path d="M0 0 C2.93179119 2.16889498 3.28786242 2.79561225 4.4375 6.5 C4.3125 9.875 4.3125 9.875 2.875 11.8125 C2.359375 12.163125 1.84375 12.51375 1.3125 12.875 C0.735 12.194375 0.1575 11.51375 -0.4375 10.8125 C-4.0772852 7.09843347 -8.7106567 4.88894008 -13.23828125 2.42578125 C-14.04652344 1.91402344 -14.85476562 1.40226562 -15.6875 0.875 C-15.6875 0.215 -15.6875 -0.445 -15.6875 -1.125 C-9.32398184 -2.92799681 -5.74675805 -3.76468749 0 0 Z " fill="#3C93A7" transform="translate(41.6875,42.125)"/>
<path d="M0 0 C1.94886152 1.43938757 3.88950378 2.88799575 5.8203125 4.3515625 C7.15715396 5.3625788 8.50406295 6.36064755 9.8671875 7.3359375 C11.5 8.5625 11.5 8.5625 14 11 C14.375 13.8125 14.375 13.8125 14 16 C10.01088997 16 7.90132767 14.14523376 4.8125 11.875 C4.25369141 11.49601562 3.69488281 11.11703125 3.11914062 10.7265625 C1.51953125 9.5546875 1.51953125 9.5546875 -1 7 C-1.42578125 3.7578125 -1.42578125 3.7578125 -1 1 C-0.67 0.67 -0.34 0.34 0 0 Z " fill="#F5F9F4" transform="translate(19,19)"/>
<path d="M0 0 C-3.08809695 1.76462683 -4.23312136 2 -8 2 C-8.33 2.66 -8.66 3.32 -9 4 C-9 3.34 -9 2.68 -9 2 C-9.99 2.495 -9.99 2.495 -11 3 C-12.99960012 3.039992 -15.00047242 3.04346799 -17 3 C-15.67741528 2.31225595 -14.34013497 1.65288627 -13 1 C-11.88625 0.4225 -10.7725 -0.155 -9.625 -0.75 C-5.45895185 -2.18656833 -3.91944455 -1.81632796 0 0 Z " fill="#C1D89C" transform="translate(34,39)"/>
<path d="M0 0 C3.3 0.33 6.6 0.66 10 1 C10 1.33 10 1.66 10 2 C4.555 3.485 4.555 3.485 -1 5 C-1.99 4.01 -2.98 3.02 -4 2 C-2.68 2 -1.36 2 0 2 C0 1.34 0 0.68 0 0 Z " fill="#ADD0C3" transform="translate(24,12)"/>
</svg>
